<?xml version="1.0" encoding="UTF-8"?>
<svg width="400" height="300" xmlns="http://www.w3.org/2000/svg">
  <!-- Background -->
  <rect width="100%" height="100%" fill="#f1f8e9"/>
  
  <!-- Sun -->
  <circle cx="350" cy="50" r="30" fill="#ffd700"/>
  
  <!-- Field -->
  <path d="M0,200 Q200,150 400,200 L400,300 L0,300 Z" fill="#4caf50"/>
  
  <!-- Plants -->
  <g transform="translate(50,180)">
    <path d="M0,0 C10,-20 20,-20 30,0 L15,40 L0,0 Z" fill="#2e7d32"/>
    <line x1="15" y1="40" x2="15" y2="60" stroke="#795548" stroke-width="3"/>
  </g>
  
  <g transform="translate(150,170)">
    <path d="M0,0 C10,-20 20,-20 30,0 L15,40 L0,0 Z" fill="#2e7d32"/>
    <line x1="15" y1="40" x2="15" y2="60" stroke="#795548" stroke-width="3"/>
  </g>
  
  <g transform="translate(250,190)">
    <path d="M0,0 C10,-20 20,-20 30,0 L15,40 L0,0 Z" fill="#2e7d32"/>
    <line x1="15" y1="40" x2="15" y2="60" stroke="#795548" stroke-width="3"/>
  </g>
  
  <!-- Text -->
  <text x="200" y="100" font-family="Arial" font-size="24" text-anchor="middle" fill="#2e7d32">
    AgriMind.AI
  </text>
</svg>